<svg id="visual" viewBox="0 0 900 600" width="900" height="600" xmlns="http://www.w3.org/2000/svg" xmlns:xlink="http://www.w3.org/1999/xlink" version="1.1"><rect x="0" y="0" width="900" height="600" fill="#4b129f"></rect><defs><linearGradient id="grad1_0" x1="33.3%" y1="0%" x2="100%" y2="100%"><stop offset="20%" stop-color="#4b129f" stop-opacity="1"></stop><stop offset="80%" stop-color="#4b129f" stop-opacity="1"></stop></linearGradient></defs><defs><linearGradient id="grad2_0" x1="0%" y1="0%" x2="66.7%" y2="100%"><stop offset="20%" stop-color="#4b129f" stop-opacity="1"></stop><stop offset="80%" stop-color="#4b129f" stop-opacity="1"></stop></linearGradient></defs><g transform="translate(900, 0)"><path d="M0 405.6C-72.4 395.8 -144.8 386.1 -202.8 351.3C-260.9 316.5 -304.6 256.7 -336 194C-367.4 131.3 -386.5 65.6 -405.6 0L0 0Z" fill="#273c80"></path></g><g transform="translate(0, 600)"><path d="M0 -405.6C69.9 -393.9 139.8 -382.2 202 -349.9C264.2 -317.5 318.6 -264.6 351.3 -202.8C383.9 -141.1 394.8 -70.5 405.6 0L0 0Z" fill="#273c80"></path></g></svg>