<svg id="visual" viewBox="0 0 900 600" width="900" height="600" xmlns="http://www.w3.org/2000/svg" xmlns:xlink="http://www.w3.org/1999/xlink" version="1.1"><rect x="0" y="0" width="900" height="600" fill="#6200ea"></rect><defs><linearGradient id="grad1_0" x1="33.3%" y1="0%" x2="100%" y2="100%"><stop offset="20%" stop-color="#6200ea" stop-opacity="1"></stop><stop offset="80%" stop-color="#6200ea" stop-opacity="1"></stop></linearGradient></defs><defs><linearGradient id="grad2_0" x1="0%" y1="0%" x2="66.7%" y2="100%"><stop offset="20%" stop-color="#6200ea" stop-opacity="1"></stop><stop offset="80%" stop-color="#6200ea" stop-opacity="1"></stop></linearGradient></defs><g transform="translate(900, 0)"><path d="M0 297.5C-50.4 287.4 -100.8 277.3 -146.5 253.7C-192.2 230.2 -233.2 193.3 -257.6 148.7C-282 104.2 -289.7 52.1 -297.5 0L0 0Z" fill="#283593"></path></g><g transform="translate(0, 600)"><path d="M0 -297.5C53.1 -290.3 106.3 -283.2 148.7 -257.6C191.2 -232 222.9 -188 246 -142C269 -96 283.2 -48 297.5 0L0 0Z" fill="#283593"></path></g></svg>